<?xml version="1.0" encoding="UTF-8"?>
<svg width="14px" height="15px" viewBox="0 0 14 15" version="1.1" xmlns="http://www.w3.org/2000/svg" xmlns:xlink="http://www.w3.org/1999/xlink">
    <!-- Generator: sketchtool 41 (35326) - http://www.bohemiancoding.com/sketch -->
    <title>A96C55AE-8400-40C0-AD5A-E05F9DF7303B</title>
    <desc>Created with sketchtool.</desc>
    <defs></defs>
    <g id="Page-1" stroke="none" stroke-width="1" fill="none" fill-rule="evenodd">
        <g id="guideline" transform="translate(-1015.000000, -1874.000000)" fill="#5C5C5C">
            <g id="ic_search2" transform="translate(1015.000000, 1874.000000)">
                <path d="M5.88467091,9.4197571 C8.03011541,9.4197571 9.76934181,7.7587879 9.76934181,5.70987855 C9.76934181,3.6609692 8.03011541,2 5.88467091,2 C3.73922641,2 2,3.6609692 2,5.70987855 C2,7.7587879 3.73922641,9.4197571 5.88467091,9.4197571 Z M5.88467091,11.4197571 C2.65472895,11.4197571 0,8.88447877 0,5.70987855 C0,2.53527834 2.65472895,0 5.88467091,0 C9.11461286,0 11.7693418,2.53527834 11.7693418,5.70987855 C11.7693418,8.88447877 9.11461286,11.4197571 5.88467091,11.4197571 Z" id="Oval-43"></path>
                <path d="M8.64268387,11.030882 L12.3030013,14.526502 C12.702408,14.9079371 13.3354053,14.8933684 13.7168405,14.4939617 C14.0982756,14.0945551 14.0837069,13.4615578 13.6843003,13.0801226 L10.0239828,9.58450263 C9.62457617,9.20306746 8.99157882,9.21763621 8.61014365,9.61704284 C8.22870848,10.0164495 8.24327724,10.6494468 8.64268387,11.030882 Z" id="Line"></path>
            </g>
        </g>
    </g>
</svg>